<?xml version="1.0" encoding="UTF-8"?> <svg xmlns="http://www.w3.org/2000/svg" width="439.999" height="768" viewBox="0 0 439.999 768"><path id="Soustraction_4" data-name="Soustraction 4" d="M-2360,802h-440V34h440V802Zm-165.767-386.491-.011,102.276h67.437V491.209H-2502.4V442.086h20.676v25.233h23.381l0-51.809Zm-88.12,75.029v26.576h67.435l0-51.81h-23.374v25.234Zm-88.112-.67v26.575h67.436l0-51.81h-23.374v25.234Zm88.122-75.03-.01,51.809h23.38V441.415l44.059,0V414.838Zm-88.112-.67-.01,51.808h23.381V440.743h44.058V414.168Zm111.489-49.126h20.668v25.233h23.379L-2546.43,288h-45.4v25.232h-22.043l-.014,77.043h23.38l.007-25.232ZM-2701.966,288l-.01,77.042h22.013v25.233h45.408l.018-102.275h-23.373l-.01,75.693H-2678.6l.011-75.693Zm132.146,50.467h-20.673V314.574h20.673v23.891Z" transform="translate(2800 -34)" fill="#fa141a"></path></svg> 