<?xml version="1.0" encoding="utf-8"?>
<!-- Generator: Adobe Illustrator 15.1.0, SVG Export Plug-In  -->
<!DOCTYPE svg PUBLIC "-//W3C//DTD SVG 1.1//EN" "http://www.w3.org/Graphics/SVG/1.1/DTD/svg11.dtd" [
	<!ENTITY ns_flows "http://ns.adobe.com/Flows/1.0/">
]>
<svg version="1.1"
	 xmlns="http://www.w3.org/2000/svg" xmlns:xlink="http://www.w3.org/1999/xlink" xmlns:a="http://ns.adobe.com/AdobeSVGViewerExtensions/3.0/"
	 x="0px" y="0px" width="302px" height="100px" viewBox="0 -1.359 302 100"
	 overflow="visible" enable-background="new 0 -1.359 302 100" xml:space="preserve">
<defs>
</defs>
<path fill="#A52837" d="M200.049,44.493v-1.439h-1.437L200.049,44.493z M194.347,43.054l5.702,5.719v-1.457l-4.25-4.262H194.347z
	 M190.08,43.054l9.971,9.997v-1.457l-8.518-8.54H190.08z M186.583,43.054v0.773l13.467,13.504v-1.457l-12.782-12.82H186.583z
	 M186.583,48.106l13.467,13.503v-1.458l-13.467-13.503V48.106z M186.583,52.387l13.467,13.503v-1.457L186.583,50.93V52.387z
	 M186.583,56.667l12.74,12.774h0.727v-0.729L186.583,55.21V56.667L186.583,56.667z M186.583,60.271h-0.672l9.146,9.171h1.452
	l-9.926-9.951V60.271L186.583,60.271z M181.644,60.271l9.146,9.171h1.453l-9.146-9.171H181.644z M178.066,60.271v0.691l8.455,8.479
	h1.453l-9.146-9.171L178.066,60.271L178.066,60.271z M178.066,65.244l4.188,4.197h1.451l-5.639-5.654V65.244L178.066,65.244z
	 M178.066,69.442h1.375l-1.375-1.379V69.442z M69.326,50.22h5.605V44.6h-5.605V50.22z M76.474,51.766h-8.689v-8.712h8.689V51.766z
	 M246.613,47.56h-31.914l0.297,1.546h31.617V47.56z M246.613,51.682h-31.121l0.297,1.546h30.824V51.682z M246.613,55.805h-30.328
	l0.297,1.545h30.031V55.805z M246.613,59.927h-29.537l0.297,1.546h29.24V59.927z M246.613,64.049h-28.744l0.297,1.546h28.447V64.049
	z M97.949,45.76c-7.477,1.168-7.367,8.173-7.35,8.688l8.916-8.94L97.949,45.76z M104.707,44.674L90.601,58.818v2.323h2.043
	l17.254-17.302L104.707,44.674z M117.401,42.634l-2.312,0.371L97.004,61.142h2.07v2.294l18.15-18.201
	C117.332,43.636,117.401,42.634,117.401,42.634 M116.912,49.923L99.076,67.809v2.263h2.105l15.424-15.469
	C116.708,52.996,116.813,51.399,116.912,49.923 M116.276,59.303l-10.51,10.54C112.34,68.83,115.72,64.489,116.276,59.303
	 M69.386,66.276l-0.164-3.971H69.22c-3.396-0.807-5.318-2.644-5.318-2.644s-8.365-6.118-9.374-6.857
	c-1.011-0.739-1.321-1.545-1.45-2.979l-0.372-4.367c-0.124-1.547-0.665-3.437-3.668-3.437h-5.705c-2.885,0-3.28,2.45-3.28,2.45
	l-1.463,5.461c-0.395,1.513-0.409,2.531-0.079,4.019l2.362,13.692c0.386,2.15,1.742,3.476,4.826,2.935
	c2.148-0.378,14.598-2.627,23.693-4.271L69.386,66.276z M132.765,47.56v9.567h2.842v8.475h25.93V47.56H132.765z M4.638,65.856
	l13.703,0.001c1.337-6.486,1.557-7.618,1.588-7.803c0.125-0.75,0.118-0.795,0.046-1.236L18.25,46.635h-13.2L3.673,58.979
	c-0.146,1.041-0.12,1.167-0.013,1.693L4.638,65.856z M1.678,69.436l-1.521-8.069c-0.201-0.984-0.207-1.545-0.026-2.834l1.724-15.479
	h19.412l2.231,13.177c0.152,0.936,0.123,1.398-0.047,2.417c-0.079,0.479-2.202,10.789-2.202,10.789H1.678z M300.222,17.741
	c0,1.614-0.593,3.032-1.744,4.187c-1.149,1.154-2.563,1.714-4.174,1.714h-4.562c-2.63,0-4.834-1.746-5.623-4.252
	c-0.132-0.298-0.031-0.495,0.33-0.561l2.663-0.462c0.229-0.032,0.361,0.031,0.459,0.264c0.396,0.956,1.119,1.451,2.171,1.451h4.562
	c1.313,0,2.366-1.057,2.366-2.341v-1.32c0-1.152-0.789-2.142-1.842-2.307l-6.367-1.121c-1.349-0.232-2.467-0.926-3.354-2.014
	c-0.887-1.121-1.313-2.375-1.313-3.759V5.901c0-1.613,0.562-3.001,1.711-4.153C286.654,0.594,288.068,0,289.681,0h4.557
	c2.632,0,4.869,1.748,5.656,4.254c0.101,0.297,0,0.495-0.328,0.561L296.9,5.275c-0.229,0.033-0.395-0.03-0.492-0.263
	c-0.361-0.957-1.086-1.452-2.172-1.452h-4.557c-1.283,0-2.367,1.058-2.367,2.342v1.319c0,1.154,0.789,2.145,1.873,2.31l6.334,1.119
	c1.348,0.232,2.467,0.926,3.354,2.047c0.889,1.088,1.35,2.341,1.35,3.725V17.741L300.222,17.741z M280.199,3.1
	c0,0.296-0.164,0.461-0.461,0.461h-5.938v19.62c0,0.297-0.166,0.461-0.461,0.461h-2.664c-0.295,0-0.428-0.164-0.428-0.461V3.561
	h-5.974c-0.295,0-0.426-0.165-0.426-0.461V0.462c0-0.297,0.131-0.462,0.426-0.462h15.463c0.298,0,0.462,0.165,0.462,0.462
	L280.199,3.1L280.199,3.1z M256.437,5.901c0-1.284-1.051-2.342-2.367-2.342h-6.678v6.497h6.678c1.316,0,2.367-1.055,2.367-2.374
	V5.901z M260.285,23.017c0.131,0.296-0.1,0.625-0.395,0.625h-2.895c-0.197,0-0.328-0.098-0.396-0.263l-4.211-9.793h-5v9.595
	c0,0.297-0.133,0.461-0.428,0.461h-2.661c-0.295,0-0.428-0.164-0.428-0.461V0.462c0-0.297,0.133-0.462,0.428-0.462h9.771
	c1.613,0,3.025,0.594,4.177,1.748c1.151,1.152,1.742,2.54,1.742,4.153v1.781c0,2.539-1.578,4.748-3.912,5.572L260.285,23.017z
	 M206.588,17.741c0,1.614-0.594,3.032-1.743,4.187c-1.15,1.154-2.563,1.714-4.175,1.714h-4.562c-2.629,0-4.832-1.746-5.623-4.252
	c-0.131-0.298-0.03-0.495,0.33-0.561l2.664-0.462c0.229-0.032,0.36,0.031,0.459,0.264c0.396,0.956,1.119,1.451,2.17,1.451h4.562
	c1.313,0,2.365-1.057,2.365-2.341v-1.32c0-1.152-0.789-2.142-1.841-2.307l-6.366-1.121c-1.349-0.232-2.468-0.926-3.354-2.014
	c-0.889-1.121-1.314-2.375-1.314-3.759V5.901c0-1.613,0.562-3.001,1.711-4.153C193.019,0.594,194.433,0,196.046,0h4.561
	c2.629,0,4.867,1.748,5.652,4.254c0.102,0.297,0,0.495-0.326,0.561l-2.664,0.461c-0.23,0.033-0.396-0.03-0.492-0.263
	c-0.363-0.957-1.086-1.452-2.17-1.452h-4.561c-1.281,0-2.365,1.058-2.365,2.342v1.319c0,1.154,0.787,2.145,1.871,2.31l6.336,1.119
	c1.348,0.232,2.467,0.926,3.354,2.047c0.889,1.088,1.35,2.341,1.35,3.725L206.588,17.741L206.588,17.741z M184.935,23.181
	c0,0.297-0.164,0.461-0.461,0.461h-14.205c-0.297,0-0.431-0.164-0.431-0.461V0.462c0-0.297,0.134-0.462,0.431-0.462h14.205
	c0.297,0,0.461,0.165,0.461,0.462V3.1c0,0.296-0.164,0.461-0.461,0.461h-11.108v6.497h9.926c0.297,0,0.459,0.132,0.459,0.428v2.673
	c0,0.298-0.162,0.429-0.459,0.429h-9.926v6.496h11.108c0.297,0,0.461,0.165,0.461,0.461V23.181z M159.978,7.09
	c0-0.956-0.36-1.781-1.052-2.473c-0.69-0.692-1.516-1.058-2.469-1.058h-5.768v16.522h5.768c0.953,0,1.776-0.33,2.469-1.022
	c0.689-0.691,1.052-1.55,1.052-2.506V7.09z M163.529,16.554c0,1.946-0.689,3.627-2.07,5.012c-1.381,1.386-3.059,2.076-5,2.076H147.6
	c-0.295,0-0.426-0.164-0.426-0.461V0.462c0-0.297,0.131-0.462,0.426-0.462h8.859c1.941,0,3.619,0.69,5,2.077
	c1.381,1.386,2.07,3.066,2.07,5.013V16.554z M129.292,23.181c0,0.297-0.164,0.461-0.461,0.461h-2.828
	c-0.164,0-0.297-0.063-0.395-0.229l-9.305-16.586v16.354c0,0.297-0.131,0.461-0.43,0.461h-2.662c-0.297,0-0.428-0.164-0.428-0.461
	V0.462c0-0.297,0.131-0.462,0.428-0.462h2.861c0.164,0,0.264,0.064,0.361,0.229l9.305,16.586V0.462c0-0.297,0.166-0.462,0.461-0.462
	h2.631c0.297,0,0.461,0.165,0.461,0.462L129.292,23.181L129.292,23.181z M102.562,7.09c0-0.956-0.363-1.781-1.053-2.473
	c-0.691-0.692-1.514-1.058-2.467-1.058h-2.602c-0.953,0-1.809,0.364-2.5,1.058c-0.689,0.69-1.051,1.517-1.051,2.473v9.464
	c0,0.956,0.361,1.813,1.051,2.506c0.691,0.692,1.547,1.022,2.5,1.022h2.602c0.953,0,1.775-0.33,2.467-1.022
	c0.689-0.691,1.053-1.55,1.053-2.506V7.09z M106.112,16.554c0,1.946-0.691,3.627-2.072,5.012c-1.381,1.386-3.059,2.076-4.999,2.076
	h-2.602c-1.941,0-3.617-0.69-4.998-2.076c-1.381-1.385-2.072-3.064-2.072-5.012V7.09c0-1.945,0.691-3.627,2.072-5.013
	C92.823,0.69,94.499,0,96.439,0h2.602c1.939,0,3.617,0.69,4.998,2.077c1.381,1.386,2.072,3.066,2.072,5.013L106.112,16.554
	L106.112,16.554z M83.233,17.741c0,1.614-0.59,3.032-1.742,4.187c-1.151,1.154-2.565,1.714-4.176,1.714h-4.559
	c-2.629,0-4.832-1.746-5.623-4.252c-0.131-0.298-0.033-0.495,0.33-0.561l2.664-0.462c0.229-0.032,0.359,0.031,0.459,0.264
	c0.395,0.956,1.117,1.451,2.17,1.451h4.559c1.316,0,2.367-1.057,2.367-2.341v-1.32c0-1.152-0.789-2.142-1.84-2.307l-6.367-1.121
	c-1.348-0.232-2.467-0.926-3.355-2.014c-0.887-1.121-1.314-2.375-1.314-3.759V5.901c0-1.613,0.559-3.001,1.711-4.153
	C69.666,0.594,71.08,0,72.693,0h4.557c2.631,0,4.867,1.748,5.656,4.254c0.1,0.297,0,0.495-0.328,0.561l-2.664,0.461
	c-0.23,0.033-0.395-0.03-0.492-0.263c-0.363-0.957-1.086-1.452-2.172-1.452h-4.557c-1.283,0-2.369,1.058-2.369,2.342v1.319
	c0,1.154,0.789,2.145,1.875,2.31l6.334,1.119c1.348,0.232,2.465,0.926,3.354,2.047c0.889,1.088,1.348,2.341,1.348,3.725v1.32
	L83.233,17.741L83.233,17.741z M60.888,23.181c0,0.297-0.132,0.461-0.429,0.461h-10.29c-0.296,0-0.428-0.164-0.428-0.461v-2.638
	c0-0.296,0.132-0.461,0.428-0.461h3.37V3.561h-3.37c-0.296,0-0.428-0.165-0.428-0.461V0.462C49.741,0.165,49.873,0,50.168,0h10.29
	c0.297,0,0.429,0.165,0.429,0.462V3.1c0,0.296-0.132,0.461-0.429,0.461h-3.369v16.521h3.369c0.297,0,0.429,0.165,0.429,0.461V23.181
	z M232.615,14.772l-2.881-9.178l-0.201-0.624l-0.201,0.623l-2.883,9.179H232.615z M238.929,23.05
	c0.098,0.396-0.066,0.592-0.429,0.592h-2.797c-0.229,0-0.358-0.098-0.427-0.296l-1.577-5.011h-8.369l-1.578,5.011
	c-0.065,0.198-0.196,0.296-0.428,0.296h-2.796c-0.396,0-0.524-0.194-0.396-0.592l7.365-22.72c0.065-0.231,0.196-0.33,0.428-0.33
	h3.207c0.229,0,0.318,0.096,0.396,0.33L238.929,23.05z M38.638,14.772l-2.882-9.178l-0.201-0.624l-0.2,0.623l-2.883,9.179H38.638z
	 M44.951,23.05c0.098,0.396-0.066,0.592-0.427,0.592h-2.795c-0.23,0-0.362-0.098-0.428-0.296l-1.578-5.011h-8.369l-1.578,5.011
	c-0.067,0.198-0.197,0.296-0.428,0.296h-2.795c-0.394,0-0.526-0.194-0.394-0.592l7.365-22.72C33.589,0.099,33.722,0,33.952,0h3.206
	c0.23,0,0.32,0.096,0.394,0.33L44.951,23.05z M20.867,23.181c0,0.297-0.132,0.461-0.428,0.461h-2.663
	c-0.296,0-0.427-0.164-0.427-0.461V7.09l-4.604,8.672c-0.066,0.132-0.197,0.199-0.394,0.199H9.357c-0.164,0-0.296-0.067-0.362-0.199
	L4.359,7.09v16.091c0,0.297-0.131,0.461-0.427,0.461H1.269c-0.296,0-0.427-0.164-0.427-0.461V0.462C0.841,0.165,0.973,0,1.269,0
	h2.861c0.164,0,0.263,0.064,0.362,0.199l6.379,11.901l6.346-11.901C17.315,0.064,17.414,0,17.579,0h2.86
	c0.296,0,0.428,0.165,0.428,0.462V23.181z"/>
<path fill="#A52837" d="M1.169,95.763c0.702,0.449,1.71,0.792,2.791,0.792c1.603,0,2.539-0.847,2.539-2.071
	c0-1.114-0.648-1.781-2.287-2.395c-1.981-0.72-3.205-1.764-3.205-3.457c0-1.891,1.566-3.295,3.925-3.295
	c1.224,0,2.143,0.289,2.665,0.595L7.166,87.21c-0.378-0.234-1.188-0.576-2.287-0.576c-1.656,0-2.287,0.99-2.287,1.818
	c0,1.135,0.738,1.691,2.413,2.341c2.053,0.792,3.079,1.782,3.079,3.564c0,1.872-1.369,3.512-4.231,3.512
	c-1.17,0-2.449-0.36-3.097-0.792L1.169,95.763z"/>
<path fill="#A52837" d="M12.438,93.854l-1.26,3.817H9.558l4.141-12.136h1.873l4.141,12.136h-1.674l-1.296-3.817H12.438z
	 M16.436,92.63l-1.207-3.494c-0.27-0.791-0.45-1.512-0.63-2.214h-0.036c-0.18,0.702-0.36,1.458-0.612,2.196l-1.188,3.512H16.436z"/>
<path fill="#A52837" d="M23.329,85.535v12.136h-1.584V85.535H23.329z"/>
<path fill="#A52837" d="M26.298,97.671V85.535h1.729l3.871,6.14c0.882,1.423,1.603,2.701,2.161,3.943l0.054-0.019
	c-0.144-1.621-0.18-3.098-0.18-4.987v-5.077h1.477v12.136h-1.584l-3.853-6.158c-0.846-1.35-1.656-2.736-2.25-4.051l-0.054,0.018
	c0.09,1.531,0.108,2.989,0.108,5.006v5.187L26.298,97.671L26.298,97.671z"/>
<path fill="#A52837" d="M40.699,86.868h-3.691v-1.333h8.985v1.333h-3.709v10.803H40.7L40.699,86.868L40.699,86.868z"/>
<path fill="#A52837" d="M51.084,92.233v1.152h-4.447v-1.152H51.084z"/>
<path fill="#A52837" d="M54.685,85.535v5.077h5.87v-5.077h1.584v12.136h-1.584v-5.689h-5.87v5.689h-1.584V85.535H54.685z"/>
<path fill="#A52837" d="M71.372,91.981h-4.699v4.375h5.257v1.314h-6.842V85.535h6.572v1.313h-4.987v3.835h4.699V91.981z"/>
<path fill="#A52837" d="M74.195,85.697c0.792-0.145,1.945-0.252,3.007-0.252c1.674,0,2.772,0.323,3.511,0.989
	c0.594,0.54,0.955,1.368,0.955,2.323c0,1.584-1.008,2.646-2.269,3.078v0.055c0.918,0.324,1.477,1.188,1.765,2.448
	c0.396,1.692,0.684,2.862,0.937,3.331h-1.622c-0.198-0.36-0.468-1.387-0.792-2.898c-0.36-1.675-1.026-2.305-2.449-2.358h-1.476
	v5.258h-1.567V85.697z M75.763,91.226h1.602c1.675,0,2.737-0.919,2.737-2.305c0-1.566-1.135-2.252-2.791-2.252
	c-0.756,0-1.278,0.055-1.548,0.127V91.226z"/>
<path fill="#A52837" d="M84.132,85.716c0.684-0.162,1.782-0.271,2.863-0.271c1.566,0,2.575,0.271,3.313,0.883
	c0.63,0.469,1.026,1.188,1.026,2.143c0,1.189-0.792,2.215-2.053,2.665v0.054c1.152,0.271,2.502,1.226,2.502,3.025
	c0,1.045-0.414,1.854-1.044,2.431c-0.829,0.774-2.197,1.135-4.177,1.135c-1.081,0-1.909-0.071-2.431-0.145L84.132,85.716
	L84.132,85.716z M85.699,90.685h1.422c1.638,0,2.611-0.882,2.611-2.053c0-1.404-1.062-1.98-2.647-1.98
	c-0.72,0-1.134,0.056-1.386,0.108V90.685z M85.699,96.482c0.324,0.055,0.756,0.072,1.314,0.072c1.62,0,3.115-0.595,3.115-2.357
	c0-1.64-1.422-2.343-3.133-2.343h-1.296V96.482z"/>
<path fill="#A52837" d="M94.104,85.535h1.584v10.82h5.186v1.314h-6.77V85.535z"/>
<path fill="#A52837" d="M104.833,93.854l-1.26,3.817h-1.621l4.141-12.136h1.873l4.141,12.136h-1.674l-1.296-3.817H104.833z
	 M108.83,92.63l-1.206-3.494c-0.271-0.791-0.45-1.512-0.63-2.214h-0.036c-0.18,0.702-0.36,1.458-0.612,2.196l-1.188,3.512H108.83z"
	/>
<path fill="#A52837" d="M115.668,85.535v12.136h-1.584V85.535H115.668z"/>
<path fill="#A52837" d="M118.655,97.671V85.535h1.729l3.872,6.14c0.882,1.423,1.602,2.701,2.161,3.943l0.054-0.019
	c-0.144-1.621-0.18-3.098-0.18-4.987v-5.077h1.476v12.136h-1.584l-3.853-6.158c-0.846-1.35-1.657-2.736-2.25-4.051l-0.054,0.018
	c0.09,1.531,0.108,2.989,0.108,5.006v5.187L118.655,97.671L118.655,97.671z"/>
</svg>
